<svg width="125" height="46" viewBox="0 0 125 46" fill="none" xmlns="http://www.w3.org/2000/svg">
<rect x="1" y="0.5" width="123" height="45" rx="22.5" stroke="#C1B6AD"/>
<rect x="8.5" y="8" width="30" height="30" rx="15" fill="#C1B6AD"/>
<path d="M15.5 31.12H31.5V15.12H15.5V31.12Z" fill="#403F3D"/>
<path d="M51.5909 29H47.6477V17.3636H51.6705C52.8258 17.3636 53.8182 17.5966 54.6477 18.0625C55.4811 18.5246 56.1212 19.1894 56.5682 20.0568C57.0152 20.9242 57.2386 21.9621 57.2386 23.1705C57.2386 24.3826 57.0133 25.4242 56.5625 26.2955C56.1155 27.1667 55.4697 27.8352 54.625 28.3011C53.7841 28.767 52.7727 29 51.5909 29ZM49.7557 27.1761H51.4886C52.2992 27.1761 52.9754 27.0284 53.517 26.733C54.0587 26.4337 54.4659 25.9886 54.7386 25.3977C55.0114 24.803 55.1477 24.0606 55.1477 23.1705C55.1477 22.2803 55.0114 21.5417 54.7386 20.9545C54.4659 20.3636 54.0625 19.9223 53.5284 19.6307C52.9981 19.3352 52.339 19.1875 51.5511 19.1875H49.7557V27.1761ZM63.0142 29.1705C62.1392 29.1705 61.3835 28.9886 60.7472 28.625C60.1146 28.2576 59.6278 27.7386 59.2869 27.0682C58.946 26.3939 58.7756 25.6004 58.7756 24.6875C58.7756 23.7898 58.946 23.0019 59.2869 22.3239C59.6316 21.642 60.1127 21.1117 60.7301 20.733C61.3475 20.3504 62.0729 20.1591 62.9062 20.1591C63.4441 20.1591 63.9517 20.2462 64.429 20.4205C64.91 20.5909 65.3343 20.8561 65.7017 21.2159C66.0729 21.5758 66.3646 22.0341 66.5767 22.5909C66.7888 23.1439 66.8949 23.803 66.8949 24.5682V25.1989H59.7415V23.8125H64.9233C64.9195 23.4186 64.8343 23.0682 64.6676 22.7614C64.5009 22.4508 64.268 22.2064 63.9688 22.0284C63.6733 21.8504 63.3286 21.7614 62.9347 21.7614C62.5142 21.7614 62.1449 21.8636 61.8267 22.0682C61.5085 22.2689 61.2604 22.5341 61.0824 22.8636C60.9081 23.1894 60.8191 23.5473 60.8153 23.9375V25.1477C60.8153 25.6553 60.9081 26.0909 61.0938 26.4545C61.2794 26.8144 61.5388 27.0909 61.8722 27.2841C62.2055 27.4735 62.5956 27.5682 63.0426 27.5682C63.3419 27.5682 63.6127 27.5265 63.8551 27.4432C64.0975 27.3561 64.3078 27.2292 64.4858 27.0625C64.6638 26.8958 64.7983 26.6894 64.8892 26.4432L66.8097 26.6591C66.6884 27.1667 66.4574 27.6098 66.1165 27.9886C65.7794 28.3636 65.3475 28.6553 64.821 28.8636C64.2945 29.0682 63.6922 29.1705 63.0142 29.1705ZM75.5327 22.5795L73.6577 22.7841C73.6046 22.5947 73.5118 22.4167 73.3793 22.25C73.2505 22.0833 73.0762 21.9489 72.8565 21.8466C72.6368 21.7443 72.3679 21.6932 72.0497 21.6932C71.6217 21.6932 71.2618 21.786 70.9702 21.9716C70.6823 22.1572 70.5402 22.3977 70.544 22.6932C70.5402 22.947 70.633 23.1534 70.8224 23.3125C71.0156 23.4716 71.3338 23.6023 71.777 23.7045L73.2656 24.0227C74.0914 24.2008 74.705 24.483 75.1065 24.8693C75.5118 25.2557 75.7164 25.7614 75.7202 26.3864C75.7164 26.9356 75.5554 27.4205 75.2372 27.8409C74.9228 28.2576 74.4853 28.5833 73.9247 28.8182C73.3641 29.053 72.7202 29.1705 71.9929 29.1705C70.9247 29.1705 70.0649 28.947 69.4134 28.5C68.7618 28.0492 68.3736 27.4223 68.2486 26.6193L70.2543 26.4261C70.3452 26.8201 70.5384 27.1174 70.8338 27.3182C71.1293 27.5189 71.5137 27.6193 71.9872 27.6193C72.4759 27.6193 72.8679 27.5189 73.1634 27.3182C73.4626 27.1174 73.6122 26.8693 73.6122 26.5739C73.6122 26.3239 73.5156 26.1174 73.3224 25.9545C73.133 25.7917 72.8376 25.6667 72.4361 25.5795L70.9474 25.267C70.1103 25.0928 69.491 24.7992 69.0895 24.3864C68.688 23.9697 68.4891 23.4432 68.4929 22.8068C68.4891 22.2689 68.6349 21.803 68.9304 21.4091C69.2296 21.0114 69.6444 20.7045 70.1747 20.4886C70.7088 20.2689 71.3243 20.1591 72.0213 20.1591C73.044 20.1591 73.849 20.3769 74.4361 20.8125C75.027 21.2481 75.3925 21.8371 75.5327 22.5795ZM84.3139 22.5795L82.4389 22.7841C82.3859 22.5947 82.2931 22.4167 82.1605 22.25C82.0317 22.0833 81.8575 21.9489 81.6378 21.8466C81.4181 21.7443 81.1491 21.6932 80.831 21.6932C80.4029 21.6932 80.0431 21.786 79.7514 21.9716C79.4635 22.1572 79.3215 22.3977 79.3253 22.6932C79.3215 22.947 79.4143 23.1534 79.6037 23.3125C79.7969 23.4716 80.1151 23.6023 80.5582 23.7045L82.0469 24.0227C82.8726 24.2008 83.4863 24.483 83.8878 24.8693C84.2931 25.2557 84.4976 25.7614 84.5014 26.3864C84.4976 26.9356 84.3366 27.4205 84.0185 27.8409C83.7041 28.2576 83.2666 28.5833 82.706 28.8182C82.1454 29.053 81.5014 29.1705 80.7741 29.1705C79.706 29.1705 78.8461 28.947 78.1946 28.5C77.5431 28.0492 77.1548 27.4223 77.0298 26.6193L79.0355 26.4261C79.1264 26.8201 79.3196 27.1174 79.6151 27.3182C79.9105 27.5189 80.295 27.6193 80.7685 27.6193C81.2571 27.6193 81.6491 27.5189 81.9446 27.3182C82.2438 27.1174 82.3935 26.8693 82.3935 26.5739C82.3935 26.3239 82.2969 26.1174 82.1037 25.9545C81.9143 25.7917 81.6188 25.6667 81.2173 25.5795L79.7287 25.267C78.8916 25.0928 78.2723 24.7992 77.8707 24.3864C77.4692 23.9697 77.2704 23.4432 77.2741 22.8068C77.2704 22.2689 77.4162 21.803 77.7116 21.4091C78.0109 21.0114 78.4257 20.7045 78.956 20.4886C79.4901 20.2689 80.1056 20.1591 80.8026 20.1591C81.8253 20.1591 82.6302 20.3769 83.2173 20.8125C83.8082 21.2481 84.1738 21.8371 84.3139 22.5795ZM90.0611 29.1705C89.1861 29.1705 88.4304 28.9886 87.794 28.625C87.1615 28.2576 86.6747 27.7386 86.3338 27.0682C85.9929 26.3939 85.8224 25.6004 85.8224 24.6875C85.8224 23.7898 85.9929 23.0019 86.3338 22.3239C86.6785 21.642 87.1596 21.1117 87.777 20.733C88.3944 20.3504 89.1198 20.1591 89.9531 20.1591C90.491 20.1591 90.9986 20.2462 91.4759 20.4205C91.9569 20.5909 92.3812 20.8561 92.7486 21.2159C93.1198 21.5758 93.4115 22.0341 93.6236 22.5909C93.8357 23.1439 93.9418 23.803 93.9418 24.5682V25.1989H86.7884V23.8125H91.9702C91.9664 23.4186 91.8812 23.0682 91.7145 22.7614C91.5478 22.4508 91.3149 22.2064 91.0156 22.0284C90.7202 21.8504 90.3755 21.7614 89.9815 21.7614C89.5611 21.7614 89.1918 21.8636 88.8736 22.0682C88.5554 22.2689 88.3073 22.5341 88.1293 22.8636C87.955 23.1894 87.866 23.5473 87.8622 23.9375V25.1477C87.8622 25.6553 87.955 26.0909 88.1406 26.4545C88.3262 26.8144 88.5857 27.0909 88.919 27.2841C89.2524 27.4735 89.6425 27.5682 90.0895 27.5682C90.3887 27.5682 90.6596 27.5265 90.902 27.4432C91.1444 27.3561 91.3546 27.2292 91.5327 27.0625C91.7107 26.8958 91.8452 26.6894 91.9361 26.4432L93.8565 26.6591C93.7353 27.1667 93.5043 27.6098 93.1634 27.9886C92.8262 28.3636 92.3944 28.6553 91.8679 28.8636C91.3414 29.0682 90.7391 29.1705 90.0611 29.1705ZM95.6818 29V20.2727H97.6761V21.7273H97.767C97.9261 21.2235 98.1989 20.8352 98.5852 20.5625C98.9754 20.286 99.4205 20.1477 99.9205 20.1477C100.034 20.1477 100.161 20.1534 100.301 20.1648C100.445 20.1723 100.564 20.1856 100.659 20.2045V22.0966C100.572 22.0663 100.434 22.0398 100.244 22.017C100.059 21.9905 99.8788 21.9773 99.7045 21.9773C99.3295 21.9773 98.9924 22.0587 98.6932 22.2216C98.3977 22.3807 98.1648 22.6023 97.9943 22.8864C97.8239 23.1705 97.7386 23.4981 97.7386 23.8693V29H95.6818ZM106.852 20.2727V21.8636H101.835V20.2727H106.852ZM103.074 18.1818H105.131V26.375C105.131 26.6515 105.172 26.8636 105.256 27.0114C105.343 27.1553 105.456 27.2538 105.597 27.3068C105.737 27.3598 105.892 27.3864 106.062 27.3864C106.191 27.3864 106.309 27.3769 106.415 27.358C106.525 27.339 106.608 27.322 106.665 27.3068L107.011 28.9148C106.902 28.9527 106.744 28.9943 106.54 29.0398C106.339 29.0852 106.093 29.1117 105.801 29.1193C105.286 29.1345 104.822 29.0568 104.409 28.8864C103.996 28.7121 103.669 28.4432 103.426 28.0795C103.188 27.7159 103.07 27.2614 103.074 26.7159V18.1818Z" fill="#403F3D"/>
</svg>
