<svg width="91" height="46" viewBox="0 0 91 46" fill="none" xmlns="http://www.w3.org/2000/svg">
<rect x="1" y="0.5" width="89" height="45" rx="22.5" stroke="#C1B6AD"/>
<rect x="8.5" y="8" width="30" height="30" rx="15" fill="#C1B6AD"/>
<path d="M15.5 31.12H31.5V15.12H15.5V31.12Z" fill="#403F3D"/>
<path d="M47.1364 19.1307V17.3636H56.4205V19.1307H52.8239V29H50.733V19.1307H47.1364ZM60.7173 29.1705C59.8423 29.1705 59.0866 28.9886 58.4503 28.625C57.8177 28.2576 57.331 27.7386 56.9901 27.0682C56.6491 26.3939 56.4787 25.6004 56.4787 24.6875C56.4787 23.7898 56.6491 23.0019 56.9901 22.3239C57.3348 21.642 57.8158 21.1117 58.4332 20.733C59.0507 20.3504 59.776 20.1591 60.6094 20.1591C61.1473 20.1591 61.6548 20.2462 62.1321 20.4205C62.6132 20.5909 63.0374 20.8561 63.4048 21.2159C63.776 21.5758 64.0677 22.0341 64.2798 22.5909C64.492 23.1439 64.598 23.803 64.598 24.5682V25.1989H57.4446V23.8125H62.6264C62.6226 23.4186 62.5374 23.0682 62.3707 22.7614C62.2041 22.4508 61.9711 22.2064 61.6719 22.0284C61.3764 21.8504 61.0317 21.7614 60.6378 21.7614C60.2173 21.7614 59.848 21.8636 59.5298 22.0682C59.2116 22.2689 58.9635 22.5341 58.7855 22.8636C58.6113 23.1894 58.5223 23.5473 58.5185 23.9375V25.1477C58.5185 25.6553 58.6113 26.0909 58.7969 26.4545C58.9825 26.8144 59.242 27.0909 59.5753 27.2841C59.9086 27.4735 60.2988 27.5682 60.7457 27.5682C61.045 27.5682 61.3158 27.5265 61.5582 27.4432C61.8007 27.3561 62.0109 27.2292 62.1889 27.0625C62.367 26.8958 62.5014 26.6894 62.5923 26.4432L64.5128 26.6591C64.3916 27.1667 64.1605 27.6098 63.8196 27.9886C63.4825 28.3636 63.0507 28.6553 62.5241 28.8636C61.9976 29.0682 61.3954 29.1705 60.7173 29.1705ZM68.8494 29.1761C68.2964 29.1761 67.7983 29.0777 67.3551 28.8807C66.9157 28.6799 66.5672 28.3845 66.3097 27.9943C66.0559 27.6042 65.929 27.1231 65.929 26.5511C65.929 26.0587 66.0199 25.6515 66.2017 25.3295C66.3835 25.0076 66.6316 24.75 66.946 24.5568C67.2604 24.3636 67.6146 24.2178 68.0085 24.1193C68.4063 24.017 68.8172 23.9432 69.2415 23.8977C69.7528 23.8447 70.1676 23.7973 70.4858 23.7557C70.804 23.7102 71.035 23.642 71.179 23.5511C71.3267 23.4564 71.4006 23.3106 71.4006 23.1136V23.0795C71.4006 22.6515 71.2737 22.3201 71.0199 22.0852C70.7661 21.8504 70.4006 21.733 69.9233 21.733C69.4195 21.733 69.0199 21.8428 68.7244 22.0625C68.4328 22.2822 68.2358 22.5417 68.1335 22.8409L66.2131 22.5682C66.3646 22.0379 66.6146 21.5947 66.9631 21.2386C67.3116 20.8788 67.7377 20.6098 68.2415 20.4318C68.7453 20.25 69.3021 20.1591 69.9119 20.1591C70.3324 20.1591 70.7509 20.2083 71.1676 20.3068C71.5843 20.4053 71.965 20.5682 72.3097 20.7955C72.6544 21.0189 72.9309 21.3239 73.1392 21.7102C73.3513 22.0966 73.4574 22.5795 73.4574 23.1591V29H71.4801V27.8011H71.4119C71.2869 28.0436 71.1108 28.2708 70.8835 28.483C70.66 28.6913 70.3778 28.8598 70.0369 28.9886C69.6998 29.1136 69.304 29.1761 68.8494 29.1761ZM69.3835 27.6648C69.7964 27.6648 70.1544 27.5833 70.4574 27.4205C70.7604 27.2538 70.9934 27.0341 71.1562 26.7614C71.3229 26.4886 71.4062 26.1913 71.4062 25.8693V24.8409C71.3419 24.8939 71.232 24.9432 71.0767 24.9886C70.9252 25.0341 70.7547 25.0739 70.5653 25.108C70.3759 25.142 70.1884 25.1723 70.0028 25.1989C69.8172 25.2254 69.6563 25.2481 69.5199 25.267C69.2131 25.3087 68.9384 25.3769 68.696 25.4716C68.4536 25.5663 68.2623 25.6989 68.1222 25.8693C67.982 26.036 67.9119 26.2519 67.9119 26.517C67.9119 26.8958 68.0502 27.1818 68.3267 27.375C68.6032 27.5682 68.9555 27.6648 69.3835 27.6648Z" fill="#403F3D"/>
</svg>
